<svg width="1195" height="497" fill="none" xmlns="http://www.w3.org/2000/svg"><rect x="194.5" y="144.427" width="1000" height="352" rx="176" fill="#5267DF"/><g filter="url(#a)"><rect x="40" y="10.927" width="578" height="385" rx="26" fill="#777"/></g><rect x="42" y="12.927" width="574.23" height="381.865" rx="25" fill="url(#b)"/><rect opacity=".1" x="94.031" y="27.23" width="471.463" height="353.756" rx="5" fill="#2A2A2A"/><rect x="61.031" y="30.23" width="536" height="346" rx="8" fill="#E8EAF6"/><mask id="c" style="mask-type:alpha" maskUnits="userSpaceOnUse" x="61" y="30" width="537" height="347"><rect x="61.031" y="30.23" width="536" height="346" rx="8" fill="#fff"/></mask><g mask="url(#c)"><path fill="#5267DF" d="M57.5 30.427h547v59h-547z"/><circle opacity=".245" cx="99.5" cy="60.427" r="16" fill="#fff"/><circle opacity=".104" cx="560.5" cy="60.427" r="16" fill="#fff"/><rect opacity=".75" x="130.5" y="50.427" width="120" height="6" rx="3" fill="#fff"/><rect opacity=".25" x="130.5" y="64.427" width="64" height="6" rx="3" fill="#fff"/><rect x="118.031" y="123.23" width="261" height="316" rx="8" fill="#fff"/><rect x="413.031" y="123.23" width="128" height="316" rx="8" fill="#fff"/><rect opacity=".5" x="196.5" y="161.427" width="120" height="6" rx="3" fill="#242A45"/></g><circle cx="165.5" cy="171.427" r="16" fill="#F98E5D"/><rect opacity=".25" x="433.5" y="145.427" width="88" height="6" rx="3" fill="#242A45"/><rect opacity=".25" x="433.5" y="165.427" width="88" height="6" rx="3" fill="#242A45"/><rect opacity=".25" x="433.5" y="185.427" width="88" height="6" rx="3" fill="#242A45"/><rect opacity=".25" x="433.5" y="205.427" width="88" height="6" rx="3" fill="#242A45"/><rect opacity=".25" x="433.5" y="239.427" width="88" height="6" rx="3" fill="#242A45"/><rect opacity=".25" x="433.5" y="259.427" width="88" height="6" rx="3" fill="#242A45"/><rect opacity=".25" x="433.5" y="279.427" width="88" height="6" rx="3" fill="#242A45"/><rect opacity=".25" x="196.5" y="175.427" width="64" height="6" rx="3" fill="#242A45"/><circle cx="165.5" cy="227.427" r="16" fill="#6AC6D6"/><rect opacity=".5" x="196.5" y="217.427" width="120" height="6" rx="3" fill="#242A45"/><rect opacity=".25" x="196.5" y="231.427" width="64" height="6" rx="3" fill="#242A45"/><circle cx="165.5" cy="283.427" r="16" fill="#A47ED4"/><rect opacity=".5" x="196.5" y="273.427" width="120" height="6" rx="3" fill="#242A45"/><rect opacity=".25" x="196.5" y="287.427" width="64" height="6" rx="3" fill="#242A45"/><circle cx="165.5" cy="339.427" r="16" fill="#EC7878"/><rect opacity=".5" x="196.5" y="329.427" width="120" height="6" rx="3" fill="#242A45"/><rect opacity=".25" x="196.5" y="343.427" width="64" height="6" rx="3" fill="#242A45"/><defs><linearGradient id="b" x1="887.542" y1="206.833" x2="547.825" y2="-304.017" gradientUnits="userSpaceOnUse"><stop stop-color="#151515"/><stop offset="1" stop-color="#3D3D3D"/></linearGradient><filter id="a" x="0" y=".927" width="658" height="465" filterUnits="userSpaceOnUse" color-interpolation-filters="sRGB"><feFlood flood-opacity="0" result="BackgroundImageFix"/><feColorMatrix in="SourceAlpha" values="0 0 0 0 0 0 0 0 0 0 0 0 0 0 0 0 0 0 127 0" result="hardAlpha"/><feOffset dy="30"/><feGaussianBlur stdDeviation="20"/><feColorMatrix values="0 0 0 0 0.182433 0 0 0 0 0.230633 0 0 0 0 0.506058 0 0 0 0.20012 0"/><feBlend in2="BackgroundImageFix" result="effect1_dropShadow_5637_8"/><feBlend in="SourceGraphic" in2="effect1_dropShadow_5637_8" result="shape"/></filter></defs></svg>