<svg width="1083" height="436" fill="none" xmlns="http://www.w3.org/2000/svg"><rect x=".817" y="83.774" width="1000" height="352" rx="176" fill="#5267DF"/><rect x="604.817" y=".774" width="350" height="346" rx="8" fill="#E8EAF6"/><mask id="a" style="mask-type:alpha" maskUnits="userSpaceOnUse" x="604" y="0" width="351" height="347"><rect x="604.817" y=".774" width="350" height="346" rx="8" fill="#fff"/></mask><g mask="url(#a)"><path fill="#242A45" d="M601.286.971h547v59h-547z"/><circle opacity=".245" cx="643.286" cy="30.971" r="16" fill="#fff"/><rect opacity=".75" x="674.286" y="20.971" width="120" height="6" rx="3" fill="#fff"/><rect opacity=".25" x="674.286" y="34.971" width="64" height="6" rx="3" fill="#fff"/></g><g filter="url(#b)"><rect x="631.817" y="138.774" width="200" height="255" rx="8" fill="#fff"/></g><rect opacity=".5" x="700.499" y="173.774" width="101.317" height="6" rx="3" fill="#242A45"/><circle cx="670.817" cy="183.774" r="16" fill="#5267DF"/><rect opacity=".25" x="700.499" y="187.774" width="54.036" height="6" rx="3" fill="#242A45"/><circle cx="670.817" cy="239.774" r="16" fill="#5267DF"/><rect opacity=".5" x="700.499" y="229.774" width="101.317" height="6" rx="3" fill="#242A45"/><rect opacity=".25" x="700.499" y="243.774" width="54.036" height="6" rx="3" fill="#242A45"/><circle cx="670.817" cy="295.774" r="16" fill="#5267DF"/><rect opacity=".5" x="700.499" y="285.774" width="101.317" height="6" rx="3" fill="#242A45"/><rect opacity=".25" x="700.499" y="299.774" width="54.036" height="6" rx="3" fill="#242A45"/><circle cx="670.817" cy="351.774" r="16" fill="#5267DF"/><rect opacity=".5" x="700.499" y="341.774" width="101.317" height="6" rx="3" fill="#242A45"/><rect opacity=".25" x="700.499" y="355.774" width="54.036" height="6" rx="3" fill="#242A45"/><g filter="url(#c)"><g filter="url(#d)"><rect x="855.817" y="138.774" width="200" height="255" rx="8" fill="#fff"/></g><rect opacity=".5" x="924.499" y="173.774" width="101.317" height="6" rx="3" fill="#242A45"/><circle cx="894.817" cy="183.774" r="16" fill="#5267DF"/><rect opacity=".25" x="924.499" y="187.774" width="54.036" height="6" rx="3" fill="#242A45"/><circle cx="894.817" cy="239.774" r="16" fill="#FA5959"/><rect opacity=".5" x="924.499" y="229.774" width="101.317" height="6" rx="3" fill="#242A45"/><rect opacity=".25" x="924.499" y="243.774" width="54.036" height="6" rx="3" fill="#242A45"/><circle cx="894.817" cy="295.774" r="16" fill="#5267DF"/><rect opacity=".5" x="924.499" y="285.774" width="101.317" height="6" rx="3" fill="#242A45"/><rect opacity=".25" x="924.499" y="299.774" width="54.036" height="6" rx="3" fill="#242A45"/><circle cx="894.817" cy="351.774" r="16" fill="#5267DF"/><rect opacity=".5" x="924.499" y="341.774" width="101.317" height="6" rx="3" fill="#242A45"/><rect opacity=".25" x="924.499" y="355.774" width="54.036" height="6" rx="3" fill="#242A45"/></g><rect x="631.817" y="85.774" width="237" height="34" rx="8" fill="#fff"/><circle cx="976.817" cy="169.774" r="67" fill="#495DCF" fill-opacity=".2" stroke="#5267DF" stroke-width="20"/><path d="m1023.82 217.774 49 49" stroke="#5267DF" stroke-width="20" stroke-linecap="round" stroke-linejoin="round"/><defs><filter id="b" x="621.817" y="133.774" width="220" height="275" filterUnits="userSpaceOnUse" color-interpolation-filters="sRGB"><feFlood flood-opacity="0" result="BackgroundImageFix"/><feColorMatrix in="SourceAlpha" values="0 0 0 0 0 0 0 0 0 0 0 0 0 0 0 0 0 0 127 0" result="hardAlpha"/><feOffset dy="5"/><feGaussianBlur stdDeviation="5"/><feColorMatrix values="0 0 0 0 0.285333 0 0 0 0 0.363695 0 0 0 0 0.811481 0 0 0 0.0830693 0"/><feBlend in2="BackgroundImageFix" result="effect1_dropShadow_5631_4"/><feBlend in="SourceGraphic" in2="effect1_dropShadow_5631_4" result="shape"/></filter><filter id="c" x="845.817" y="133.774" width="220" height="275" filterUnits="userSpaceOnUse" color-interpolation-filters="sRGB"><feFlood flood-opacity="0" result="BackgroundImageFix"/><feColorMatrix in="SourceAlpha" values="0 0 0 0 0 0 0 0 0 0 0 0 0 0 0 0 0 0 127 0" result="hardAlpha"/><feOffset dy="5"/><feGaussianBlur stdDeviation="5"/><feColorMatrix values="0 0 0 0 0.285333 0 0 0 0 0.363695 0 0 0 0 0.811481 0 0 0 0.0830693 0"/><feBlend in2="BackgroundImageFix" result="effect1_dropShadow_5631_4"/><feBlend in="SourceGraphic" in2="effect1_dropShadow_5631_4" result="shape"/></filter><filter id="d" x="845.817" y="133.774" width="220" height="275" filterUnits="userSpaceOnUse" color-interpolation-filters="sRGB"><feFlood flood-opacity="0" result="BackgroundImageFix"/><feColorMatrix in="SourceAlpha" values="0 0 0 0 0 0 0 0 0 0 0 0 0 0 0 0 0 0 127 0" result="hardAlpha"/><feOffset dy="5"/><feGaussianBlur stdDeviation="5"/><feColorMatrix values="0 0 0 0 0.285333 0 0 0 0 0.363695 0 0 0 0 0.811481 0 0 0 0.0830693 0"/><feBlend in2="BackgroundImageFix" result="effect1_dropShadow_5631_4"/><feBlend in="SourceGraphic" in2="effect1_dropShadow_5631_4" result="shape"/></filter></defs></svg>