<svg width="1045" height="436" fill="none" xmlns="http://www.w3.org/2000/svg"><rect x=".317" y="83.397" width="1000" height="352" rx="176" fill="#5267DF"/><rect x="604.317" y=".397" width="350" height="346" rx="8" fill="#E8EAF6"/><mask id="a" style="mask-type:alpha" maskUnits="userSpaceOnUse" x="604" y="0" width="351" height="347"><rect x="604.317" y=".397" width="350" height="346" rx="8" fill="#fff"/></mask><g mask="url(#a)"><path fill="#242A45" d="M600.786.594h547v59h-547z"/><circle opacity=".245" cx="642.786" cy="30.594" r="16" fill="#fff"/><rect opacity=".75" x="673.786" y="20.594" width="120" height="6" rx="3" fill="#fff"/><rect opacity=".25" x="673.786" y="34.594" width="64" height="6" rx="3" fill="#fff"/></g><rect x="631.317" y="85.397" width="237" height="34" rx="8" fill="#fff"/><rect x="631.317" y="133.397" width="237" height="34" rx="8" fill="#fff"/><rect x="631.317" y="181.397" width="237" height="34" rx="8" fill="#fff"/><rect x="631.317" y="229.397" width="237" height="34" rx="8" fill="#fff"/><rect x="631.317" y="277.397" width="237" height="34" rx="8" fill="#fff"/><mask id="b" style="mask-type:alpha" maskUnits="userSpaceOnUse" x="694" y="83" width="351" height="297"><path fill-rule="evenodd" clip-rule="evenodd" d="M1044.32 83.445H694.536v295.952h349.784V83.445Z" fill="#fff"/></mask><g mask="url(#b)"><path fill-rule="evenodd" clip-rule="evenodd" d="M695.61 333.737c.67 2.018 1.715 3.998 3.173 5.935 25.202 33.474 119.376 44.633 212.224 37.814 48.477-3.562 82.671-24.526 104.283-43.749 5.16-4.594 9.61-9.088 13.36-13.223 4.67-5.145 8.31-10.86 10.91-16.895 7.65-17.778 6.17-38.316-5.12-55.161-9.58-14.276-22.73-24.824-29.52-36.543-12.93-22.317 55.44-78.736 10.95-114.38-15.71-12.584-49.161-15.488-85.663-13.536-44.428 2.378-93.365 11.955-120.285 20.045-55.712 16.737-90.58 40.981-98.538 68.256-7.958 27.276 13.311 39.618 31.88 65.654 17.495 24.526-58.554 62.997-47.654 95.783Z" fill="#3A499E"/></g><path fill-rule="evenodd" clip-rule="evenodd" d="m789.768 174.269 16.985-2.872 2.564 15.799-21 6.201 1.451-19.128Z" fill="#306299"/><path fill-rule="evenodd" clip-rule="evenodd" d="M807.317 172.515s13.176-.347 27-6.118l-6.496 12.254-18.754 5.746-1.75-11.882Z" fill="#FA9E89"/><mask id="c" style="mask-type:alpha" maskUnits="userSpaceOnUse" x="884" y="85" width="159" height="221"><path fill-rule="evenodd" clip-rule="evenodd" d="M1042.32 85.445H884.492v219.844h157.828V85.445Z" fill="#fff"/></mask><g mask="url(#c)"><path opacity=".152" fill-rule="evenodd" clip-rule="evenodd" d="M885.25 137.583c8.112 40.159 146.01 101.69 152.64 167.706 7.12-17.752 5.74-38.258-4.77-55.078-8.92-14.255-21.15-24.787-27.47-36.489-12.042-22.282 51.6-78.618 10.19-114.208-14.62-12.565-45.766-15.465-79.745-13.515-10.343 2.364-58.164 15.331-50.845 51.584Z" fill="#fff"/></g><path opacity=".149" fill-rule="evenodd" clip-rule="evenodd" d="M692.496 326.397c-.984 7.866 2.341 13.336 3.64 15.227 22.43 32.672 144.495 43.563 227.131 36.908 43.145-3.476 78.503-25.715 100.053-50.219l-330.824-1.916Z" fill="#000"/><path opacity=".128" fill-rule="evenodd" clip-rule="evenodd" d="M970.69 330.209s10.077.61 9.922 3.66c-.155 3.049-6.511 9.758-6.511 9.758l9.509-3.405 28.71-1.093-3.1 2.669s-23.13 1.067-24.164 1.88c-1.033.813-14.263 10.776-16.537 11.182-2.273.407-146.687.225-146.687.225s-14.859.589-17.339-3.986c-2.481-4.574-11.473-4.269-13.953-.305-2.481 3.965-2.137 18.603-2.137 18.603s-6.792-1.773-7.165-1.931c-23.565-9.963-49.921-41.069-49.921-41.069l239.373 3.812Z" fill="#000"/><path fill-rule="evenodd" clip-rule="evenodd" d="m1001.32 291.092-14.454 49.163s-2.055 2.444-3.549.18l9.713-50.038 8.29.695ZM1021.18 289.397l7.14 33.138-3.4 3.862-9.6-36.046 5.86-.954Z" fill="#162F44"/><path fill-rule="evenodd" clip-rule="evenodd" d="m808.824 300.479-6.025 34.2-.999 5.669 2.192.322.156.024 4.788.703s15.971-39.344 17.33-48.787c1.359-9.443-25.146-47.213-25.146-47.213l-28.768 2.448c-.761 8.219 10.745 23.711 21.028 35.77 8.101 9.499 15.444 16.864 15.444 16.864Z" fill="#F4F2F9"/><path fill-rule="evenodd" clip-rule="evenodd" d="m808.436 298.932-6.876 39.767 2.146.321.073.377.079-.352c.875-3.83 11.14-37.737 11.453-44.648.332-7.326-14.027-30-14.027-30l-7.967 17.714c7.93 9.474 15.119 16.821 15.119 16.821Z" fill="#E0DFEA"/><path fill-rule="evenodd" clip-rule="evenodd" d="m770.317 249.397 28.666-2.387 1.334-47.727s-7-24.886-14.667-24.886c-4.553 0-8.987 1.804-11.7 6.195-1.853 3.003-2.903 7.22-2.633 12.896.609 12.777-.73 48.907-.967 55.022-.02.577-.033.887-.033.887Z" fill="#6397D9"/><path fill-rule="evenodd" clip-rule="evenodd" d="m778.202 245.673-.538-56.818 6.653-13.521-7.763-.937-2.729 3.211c-1.79 3.002-2.803 7.218-2.543 12.893.589 12.774-.737 49.782-.965 55.896l7.885-.724Z" fill="#8BBFF7"/><path fill-rule="evenodd" clip-rule="evenodd" d="m778.317 190.397 21.017 40 .546-17.992.437-14.597-17.524-7.411h-4.476Z" fill="#306299"/><path fill-rule="evenodd" clip-rule="evenodd" d="M831.988 353.397h128.657c4.789 0 8.672-3.908 8.672-8.73v-220.54c0-4.822-3.883-8.73-8.672-8.73H831.988c-4.789 0-8.671 3.908-8.671 8.73v220.54c0 4.822 3.882 8.73 8.671 8.73Z" fill="#fff"/><path fill-rule="evenodd" clip-rule="evenodd" d="M831.317 146.687v88.42c0 1.818 1.455 3.29 3.253 3.29h123.494c1.797 0 3.253-1.472 3.253-3.29v-88.42c0-1.818-1.456-3.29-3.253-3.29H834.57c-1.798 0-3.253 1.472-3.253 3.29Z" fill="#E4DCF1"/><path fill-rule="evenodd" clip-rule="evenodd" d="m895.464 167.397 1.552 1.183 3.301 14.371-.072 2.367-5.226.079a1.968 1.968 0 0 1-1.031-.251c-1.495-.877-2.132-3.324-1.308-5.492.445-1.166 1.582-3.229 1.713-4.142.315-2.184 1.071-8.115 1.071-8.115Z" fill="#8E2B43"/><path fill-rule="evenodd" clip-rule="evenodd" d="m868.317 241.397 54.223-.208 1.795-.006s6.488-30.649-4.016-42.461c-2.558-2.874-5.882-4.993-9.506-6.369-11.273-4.298-25.453-1.456-28.492 7.965-4.017 12.451-14.004 41.079-14.004 41.079Z" fill="#4EC9B4"/><path fill-rule="evenodd" clip-rule="evenodd" d="M910.477 192.886s-2.215 6.026-7.103 7.294c-4.888 1.269-10.489-3.224-10.031-8.457 0 0 4.684-.687 5.448-2.96.928-2.761.306-2.854.306-2.854s-1.833-3.489-2.444-6.026.305-12.369 4.582-13.321c2.705-.601 7.027.318 10.082 4.758 0 0-1.528 8.563-3.666 12.686-2.139 4.123-3.208 6.025 2.826 8.88Z" fill="#FA9E89"/><path opacity=".184" fill-rule="evenodd" clip-rule="evenodd" d="m834.484 116.41 132.833 186.226v42.244c0 4.704-3.7 8.517-8.263 8.517H838.89c-5.287 0-9.573-4.418-9.573-9.869V120.224c0-2.929 2.329-3.956 5.167-3.814Z" fill="#F4F2F9"/><path fill-rule="evenodd" clip-rule="evenodd" d="m874.317 222.839-6.982-30.442-11.018 1.816 10.684 44.184 7.316-15.558Z" fill="#4EC9B4"/><path fill-rule="evenodd" clip-rule="evenodd" d="m865.116 191.534-.6-3.106s1.801-1.184 1.501-2.959c-.3-1.775.3-5.917.3-5.917s-.957-.647-1.576.518c-.44.829-1.125 2.737-1.125 2.737s-2.295-6.166-2.825-7.791c-.225-.69-.452-1.766-.976-1.602-.274.086-.174.715-.128 1.33.141 1.844.929 4.784.929 4.784l-.4.234-1.663-5.276c-.074-.256-.193-.644-.463-.665-.237-.019-.475.11-.475.702 0 1.184 1.275 6.077 1.275 6.077l-.318.219-1.936-4.278c-.132-.323-.613-.295-.695.044-.064.268-.046.651.174 1.192.6 1.48 1.2 3.846 1.2 3.846l-.15.173-1.05-2.17c-.189-.347-.649-.57-.783-.2-.188.518 1.458 4.971 1.458 5.267 0 .296 1.125 4.326 2.325 4.622 1.201.296 1.276 3.082 1.276 3.082l4.725-.863Z" fill="#FA9E89"/><path fill-rule="evenodd" clip-rule="evenodd" d="M934.668 264.397h22.297c1.299 0 2.352-1.072 2.352-2.394v-3.212c0-1.322-1.053-2.394-2.352-2.394h-22.297c-1.299 0-2.351 1.072-2.351 2.394v3.212c0 1.322 1.052 2.394 2.351 2.394ZM902.668 264.397h22.297c1.299 0 2.352-1.072 2.352-2.394v-3.212c0-1.322-1.053-2.394-2.352-2.394h-22.297c-1.299 0-2.351 1.072-2.351 2.394v3.212c0 1.322 1.052 2.394 2.351 2.394ZM868.668 264.397h22.297c1.299 0 2.352-1.072 2.352-2.394v-3.212c0-1.322-1.053-2.394-2.352-2.394h-22.297c-1.298 0-2.351 1.072-2.351 2.394v3.212c0 1.322 1.053 2.394 2.351 2.394ZM836.668 264.397h22.298c1.298 0 2.351-1.072 2.351-2.394v-3.212c0-1.322-1.053-2.394-2.351-2.394h-22.298c-1.299 0-2.351 1.072-2.351 2.394v3.212c0 1.322 1.052 2.394 2.351 2.394Z" fill="#FFDEDD"/><path fill-rule="evenodd" clip-rule="evenodd" d="M838.864 283.397H956.77c1.406 0 2.547-1.079 2.547-2.411v-3.178c0-1.332-1.141-2.411-2.547-2.411H838.864c-1.407 0-2.547 1.079-2.547 2.411v3.178c0 1.332 1.14 2.411 2.547 2.411ZM956.77 299.397c1.406 0 2.547-1.079 2.547-2.411v-3.178c0-1.332-1.141-2.411-2.547-2.411H838.864c-1.407 0-2.547 1.079-2.547 2.411v3.178c0 1.332 1.14 2.411 2.547 2.411H956.77ZM838.864 315.397H956.77c1.406 0 2.547-1.079 2.547-2.411v-3.178c0-1.332-1.141-2.411-2.547-2.411H838.864c-1.407 0-2.547 1.079-2.547 2.411v3.178c0 1.332 1.14 2.411 2.547 2.411ZM838.864 328.397H956.77c1.406 0 2.547-1.079 2.547-2.411v-3.178c0-1.332-1.141-2.411-2.547-2.411H838.864c-1.407 0-2.547 1.079-2.547 2.411v3.178c0 1.332 1.14 2.411 2.547 2.411Z" fill="#F4F2F9"/><path fill-rule="evenodd" clip-rule="evenodd" d="M913.538 163.718s-6.3-8.848-18.189-3.725c-11.888 5.122 1.017 13.504 1.017 13.504s.254-3.26 2.134-4.191l-.153 2.897 6.656 1.165 1.067-2.794.686 3.182 3.353 1.241s-2.744 9.624-4.344 11.021c0 0-.686 2.251-.457 2.716.228.466 10.364 3.027 11.66.699 1.295-2.328-1.372-5.588-2.21-7.761-.839-2.173 1.524-13.711-1.22-17.954Z" fill="#FC516B"/><path fill-rule="evenodd" clip-rule="evenodd" d="M942.668 139.397h17.297c1.299 0 2.352-1.343 2.352-3s-1.053-3-2.352-3h-17.297c-1.298 0-2.351 1.343-2.351 3s1.053 3 2.351 3Z" fill="#E4DCF1"/><path fill-rule="evenodd" clip-rule="evenodd" d="M916.317 211.397s-2.665 19.286-5.709 27h-16.062s-2.648-8.138 10.048-10.8c8.83-1.851 11.723-16.2 11.723-16.2ZM884.706 206.397s-3.26 10-2.649 13c.611 3 3.26 5.2 3.26 7.2s-1.63 9.6-1.63 9.6l-9.37.2s1.555-.266 5.092-3.05c5.398-4.25.764-13.625 1.91-18.95.601-2.794 3.387-8 3.387-8ZM874.317 222.168s-.213 8.384-1.915 7.094-.639-13.757-2.128-18.056c-1.489-4.299-5.957-18.057-5.957-18.057l3.829-.752 6.171 29.771Z" fill="#44AD99"/><path fill-rule="evenodd" clip-rule="evenodd" d="M848.94 183.872s-1.576.692-3.5 3.046c-.637.78-4.031 2.021-4.834 2.988-11.645 14.02-27.195 24.841-37.163 20.533-12.73-5.502-15.126-10.618-15.126-10.618l8.413-11.362s9.663 14.759 17.435 10.738c7.772-4.019 23.091-14.556 23.091-14.556l.407-6.464s.895-.24 1.324.995a8.248 8.248 0 0 1 .449 2.304l6.049-7.024s1.163-.361.809.769c-.355 1.129-2.492 4.368-2.492 4.368s-.219.616.244.335c.54-.327 4.765-5.092 4.765-5.092s.974-.064.576.866c-.306.716-2.865 4.091-3.729 5.354-.259.376.281.235.281.235l3.496-2.969c.474-.32.964-.214.87.367-.074.46-1.026 1.519-1.593 1.939-1.413 1.046-2.399 2.952-2.399 2.952l3.043-1.099s.596.527-.416 1.395ZM777.317 146.887l3.85 28.32 12.644 2.19s-.64-.668-1.372-1.56c-.748-.907-1.59-2.049-1.963-2.966-.849-2.104-.855-4.066-.855-4.066s5.608.633 6.477-2.595c.872-3.232-1.143-18.284-1.143-18.284s-2.502-9.458-17.638-1.039Z" fill="#FA9E89"/><path fill-rule="evenodd" clip-rule="evenodd" d="M787.93 147.209s6.235 4.71 12.218.698c0 0-3.792-.349-4.971-2.268 0 0 2.359.611 5.14-3.314 0 0-4.888.698-6.573-.785-1.685-1.483-10.28-3.838-15.42-.262-5.141 3.576-5.056 6.193-5.056 6.193s-3.034 1.133-2.95 2.878c.085 1.744 7.5 16.048 7.5 16.048l1.601-6.367s-1.264.378-2.022-2.587c-.759-2.966 2.528-1.687 2.865-1.076.337.611 2.528-4.187 2.528-4.187l-.337-2.791s-1.096-3.576 5.477-2.18Z" fill="#261F27"/><path fill-rule="evenodd" clip-rule="evenodd" d="M776.103 279.781c3.591 14.487-3.051 72.409-3.051 72.409l6.498 1.207c26.161-60.016 20.177-109 20.177-109l-29.41 2.414s.075-1.224.106-.934c.338 3.007 2.407 20.689 5.68 33.904Z" fill="#fff"/><path fill-rule="evenodd" clip-rule="evenodd" d="m808.586 337.473 7.553 5.859s2.976-.359 3.548 1.016c.573 1.375.63 2.929.63 2.929l-7.897.12-13.103-5.201 2.06-5.799 7.209 1.076ZM778.766 354.737s2.673 4.322 5.366 7.852c.905 1.186 3.117 1.701 3.977 4.595.74 2.489-.74 4.213-.74 4.213s-4.964-.894-8.418-3.957c-3.454-3.064-8.634-8.937-8.634-8.937l1.418-5.106 7.031 1.34Z" fill="#6397D9"/><path fill-rule="evenodd" clip-rule="evenodd" d="M978.317 282.397c0 3.866 12.983 7 29.003 7 16.01 0 29-3.134 29-7s-12.99-7-29-7c-16.02 0-29.003 3.134-29.003 7Z" fill="#224A7D"/><path fill-rule="evenodd" clip-rule="evenodd" d="M978.317 281.397c0 3.866 12.983 7 29.003 7 16.01 0 29-3.134 29-7s-12.99-7-29-7c-16.02 0-29.003 3.134-29.003 7Z" fill="#6397D9"/><path fill-rule="evenodd" clip-rule="evenodd" d="M999.317 277.397c0 1.657 5.373 3 12.003 3 6.62 0 12-1.343 12-3s-5.38-3-12-3c-6.63 0-12.003 1.343-12.003 3ZM1036.32 280.397v3.986s-.07 2.464-5 4.014l1.18-4.318s3.46-1.495 3.82-3.682Z" fill="#162F44"/><path fill-rule="evenodd" clip-rule="evenodd" d="M978.323 280.397v4.085s-.39 2.043 4.994 3.915l-1.652-4.766s-2.861-1.277-3.342-3.234Z" fill="#8CC5F2"/><path fill-rule="evenodd" clip-rule="evenodd" d="m997.317 267.435 1.968 7.69c.488 1.914 2.425 3.272 4.655 3.272h4.23c1.59 0 3.03-.685 3.9-1.772.31-.381.54-.812.69-1.278l1.71-5.313.85-2.637-18.003.038Z" fill="#FC516B"/><path fill-rule="evenodd" clip-rule="evenodd" d="M997.317 266.397c0 .552 4.033 1 9.003 1s9-.448 9-1-4.03-1-9-1-9.003.448-9.003 1Z" fill="#9B293F"/><path fill-rule="evenodd" clip-rule="evenodd" d="M1009.72 277.054c-.35.137-.69.253-1 .343l2.11-.324c.29-.402.52-.857.66-1.35l1.62-5.608c.08-.27.21-.699.21-.718 0 0-4.22 1.242-8 .818 1.23.164 4.31.412 6.16.32a.73.73 0 0 1 .77.815c-.23 1.657-.91 5.074-2.53 5.704Z" fill="#F995A9"/><path fill-rule="evenodd" clip-rule="evenodd" d="m1005.32 264.298.68 3.087.49.012s.03-3.099 3.67-5.001c3.65-1.899 3.13-8.999 3.13-8.999v.009c-.09.183-1.49 3.099-2.55 3.291-1.1.201-1.77 1.95-1.77 1.95s-.53.75-1.15.6c-.63-.15-1.25 1.499-1.25 1.499l-.21 1.752-1.04 1.8Z" fill="#51A595"/><path fill-rule="evenodd" clip-rule="evenodd" d="M1010.31 270.384s.7-23.436-11.601-29.987c0 0-3.501 1.352.6 6.967 4.101 5.615.801 9.671 2.601 11.126 1.8 1.456 4.4 2.392 4 4.264-.4 1.872.1 3.744.9 3.952.8.207 2.6 1.312 2.88 3.691l.62-.013Z" fill="#4EC9B4"/><path fill-rule="evenodd" clip-rule="evenodd" d="m1010.32 266.197.04 1.188.53.012s.04-3.099 4-5.001c3.97-1.899 3.4-8.999 3.4-8.999v.009l-.34 1.068c0 6.449-3.72 7.787-5.21 8.648-1.49.861-2.42 3.075-2.42 3.075Z" fill="#41877A"/><path fill-rule="evenodd" clip-rule="evenodd" d="M790.502 177.501s-10.552.173-11.495-1.104l-.69 1.898s8.36 4.557 14 2.624l-1.815-3.418Z" fill="#306299"/><path fill-rule="evenodd" clip-rule="evenodd" d="m805.317 191.313-12.588 14.084s-16.823-15.082-16.405-19.81c.418-4.727 6.581-14.515 16.035-5.523 9.197 8.748 12.958 11.249 12.958 11.249Z" fill="#8CC5F2"/><path fill-rule="evenodd" clip-rule="evenodd" d="m772.882 353.05 2.566.347s12.025-42.47 8.07-73.847c-1.189-9.434-5.344-33.153-5.344-33.153l-7.857.737c.317 3.023 2.357 19.855 5.426 33.137 3.367 14.562-2.861 72.779-2.861 72.779Z" fill="#F4F2F9"/><path fill-rule="evenodd" clip-rule="evenodd" d="M786.57 175.955c1.488.324 2.299.427 2.747.442-.698-.966-1.485-2.182-1.832-3.158-.793-2.241-.799-4.33-.799-4.33s-2.972-.782-3.277-.413c-.305.368 0 6.769 3.161 7.459Z" fill="#E6846F"/><path fill-rule="evenodd" clip-rule="evenodd" d="M932.317 179.397c0 10.492 8.047 19 17.973 19 4.156 0 7.981-1.491 11.027-3.996v-30.008c-3.046-2.505-6.871-3.996-11.027-3.996-9.926 0-17.973 8.507-17.973 19Z" fill="#CEC3E2"/><path fill-rule="evenodd" clip-rule="evenodd" d="M932.317 179.897c0 10.216 7.492 18.5 16.734 18.5 3.869 0 7.43-1.452 10.266-3.891v-29.218c-2.836-2.439-6.397-3.891-10.266-3.891-9.242 0-16.734 8.284-16.734 18.5Z" fill="#C3B8D8"/><path fill-rule="evenodd" clip-rule="evenodd" d="M906.317 196.493s1.984-1.104 2.298-1.305c.313-.199 4.389.902 9.825 6.516 5.434 5.614.731 10.323 3.029 13.331 2.301 3.007.106 9.322-1.044 13.634-1.151 4.309 0 9.722 0 9.722l.059.006 1.822-.006s6.584-28.868-4.076-39.995c-2.596-2.706-5.969-4.703-9.647-5.999l-2.266 4.096Z" fill="#44AD99"/></svg>